# xmcd
#
# Track frame offsets:
#	150
#	14233
#	29840
#	49769
#	65004
#	84357
#	103464
#	120574
#	138158
#	156894
#	176247
#
# Disc length: 2577 seconds
#
# Revision: 1
# Processed by: cddbd v1.5.1PL0 Copyright (c) Steve Scherf et al.
# Submitted via: audiograbber 1.82.02
#
DISCID=a10a0f0b
DTITLE=Miranda Lambert - Kerosene
DYEAR=2005
DGENRE=Country
TTITLE0=Miranda Lambert - Kerosene
TTITLE1=Miranda Lambert - What About Georgia?
TTITLE2=Miranda Lambert - Greyhound Bound For Nowhere
TTITLE3=Miranda Lambert - I Can't Be Bothered
TTITLE4=Miranda Lambert - Bring Me Down
TTITLE5=Miranda Lambert - Me And Charlie Talking
TTITLE6=Miranda Lambert - I Wanna Die
TTITLE7=Miranda Lambert - Love's Looking For You
TTITLE8=Miranda Lambert - Mama, I'm Alright
TTITLE9=Miranda Lambert - There's A Wall
TTITLE10=Miranda Lambert - Love Your Memory
EXTD=
EXTT0=
EXTT1=
EXTT2=
EXTT3=
EXTT4=
EXTT5=
EXTT6=
EXTT7=
EXTT8=
EXTT9=
EXTT10=
PLAYORDER=
